<?xml version="1.0" encoding="UTF-8" standalone="no"?>
<!-- Created with Inkscape (http://www.inkscape.org/) -->

<svg
   xmlns:dc="http://purl.org/dc/elements/1.1/"
   xmlns:cc="http://creativecommons.org/ns#"
   xmlns:rdf="http://www.w3.org/1999/02/22-rdf-syntax-ns#"
   xmlns:svg="http://www.w3.org/2000/svg"
   xmlns="http://www.w3.org/2000/svg"
   xmlns:sodipodi="http://sodipodi.sourceforge.net/DTD/sodipodi-0.dtd"
   xmlns:inkscape="http://www.inkscape.org/namespaces/inkscape"
   width="112.88889mm"
   height="128.45964mm"
   viewBox="0 0 399.99999 455.17195"
   id="svg4183"
   version="1.1"
   inkscape:version="0.91 r"
   sodipodi:docname="d4_mesa.svg">
  <defs
     id="defs4185" />
  <sodipodi:namedview
     id="base"
     pagecolor="#ffffff"
     bordercolor="#666666"
     borderopacity="1.0"
     inkscape:pageopacity="0.0"
     inkscape:pageshadow="2"
     inkscape:zoom="0.49497475"
     inkscape:cx="54.986979"
     inkscape:cy="368.21436"
     inkscape:document-units="px"
     inkscape:current-layer="layer1"
     showgrid="false"
     fit-margin-top="0"
     fit-margin-left="0"
     fit-margin-right="0"
     fit-margin-bottom="0"
     inkscape:window-width="1366"
     inkscape:window-height="706"
     inkscape:window-x="0"
     inkscape:window-y="0"
     inkscape:window-maximized="1" />
  <metadata
     id="metadata4188">
    <rdf:RDF>
      <cc:Work
         rdf:about="">
        <dc:format>image/svg+xml</dc:format>
        <dc:type
           rdf:resource="http://purl.org/dc/dcmitype/StillImage" />
        <dc:title></dc:title>
      </cc:Work>
    </rdf:RDF>
  </metadata>
  <g
     inkscape:label="Camada 1"
     inkscape:groupmode="layer"
     id="layer1"
     transform="translate(-41.332061,-298.53204)">
    <g
       id="g4799"
       transform="matrix(0.64829318,0.00188878,-0.00188878,0.64829318,15.298673,264.4199)">
      <path
         style="opacity:1;fill:#ffffff;fill-opacity:1;stroke:#000000;stroke-width:5;stroke-linecap:round;stroke-linejoin:round;stroke-miterlimit:4;stroke-dasharray:none;stroke-dashoffset:0;stroke-opacity:1"
         id="path4795"
         d="m 52.001773,523.59565 c 5.355179,-3.86688 10.973687,-7.33775 16.389058,-11.12389 3.491805,-2.44128 6.713081,-5.2965 10.403565,-7.42556 13.275911,-7.65894 26.725004,-15.038 40.429644,-21.90038 7.92104,-3.96633 16.25944,-7.03772 24.38916,-10.55659 66.0733,-28.68396 131.0905,-59.79594 195.65111,-91.72267 45.26068,-22.54697 90.2384,-45.66168 136.50851,-66.09318 3.99415,-1.8432 7.9883,-3.68639 11.98246,-5.52959 0,0 -20.8658,16.55293 -20.8658,16.55293 l 0,0 c -3.78638,1.66191 -7.57276,3.32382 -11.35915,4.98572 -44.8912,18.98886 -88.29896,41.16339 -132.01727,62.66711 -65.35461,31.99092 -131.08332,63.26642 -197.46796,93.06647 -8.61357,3.95316 -17.00406,8.43386 -25.84071,11.85947 -1.465428,0.56808 4.79034,-4.04647 3.47343,-3.1886 -8.230826,5.36184 -15.529544,12.18962 -23.963434,17.28747 0,0 -27.712613,11.12129 -27.712613,11.12129 z"
         inkscape:connector-curvature="0" />
      <path
         inkscape:connector-curvature="0"
         d="m 52.001773,541.7784 c 5.355179,-3.86688 10.973687,-7.33775 16.389058,-11.12389 3.491805,-2.44128 6.713081,-5.2965 10.403565,-7.42556 13.275911,-7.65894 26.725004,-15.038 40.429644,-21.90038 7.92104,-3.96633 16.25944,-7.03772 24.38916,-10.55659 66.0733,-28.68396 131.0905,-59.79594 195.65111,-91.72267 45.26068,-22.54697 90.2384,-45.66168 136.50851,-66.09318 3.99415,-1.8432 7.9883,-3.68639 11.98246,-5.52959 0,0 -20.8658,16.55293 -20.8658,16.55293 l 0,0 c -3.78638,1.66191 -7.57276,3.32382 -11.35915,4.98572 -44.8912,18.98886 -88.29896,41.16339 -132.01727,62.66711 -65.35461,31.99092 -131.08332,63.26642 -197.46796,93.06647 -8.61357,3.95316 -17.00406,8.43386 -25.84071,11.85947 -1.465428,0.56808 4.79034,-4.04647 3.47343,-3.1886 -8.230826,5.36184 -15.529544,12.18962 -23.963434,17.28747 0,0 -27.712613,11.12129 -27.712613,11.12129 z"
         id="path4749"
         style="opacity:1;fill:#ffffff;fill-opacity:1;stroke:#000000;stroke-width:5;stroke-linecap:round;stroke-linejoin:round;stroke-miterlimit:4;stroke-dasharray:none;stroke-dashoffset:0;stroke-opacity:1" />
      <path
         inkscape:connector-curvature="0"
         d="m 234.35333,731.34183 c 3.93362,-2.37799 7.12079,-5.80626 10.98982,-8.2633 5.06224,-3.21479 10.32667,-6.10274 15.57402,-9.00556 13.76071,-7.61238 27.54278,-15.1895 41.44626,-22.53786 16.89478,-8.92932 34.14296,-17.17336 51.20273,-25.78327 40.50171,-20.25044 80.78923,-40.93735 120.35453,-62.97119 29.05562,-16.18102 21.22836,-11.43261 39.10843,-22.81047 38.65523,-24.08183 76.59292,-49.39466 112.65836,-77.2285 0,0 24.15861,-9.62539 24.15861,-9.62539 l 0,0 c -37.73622,28.27059 -77.06946,54.35728 -117.10083,79.25336 -15.11662,8.88911 -30.17042,17.88593 -45.34988,26.66732 -49.23267,28.48131 -99.8861,54.39357 -150.58425,80.13609 -9.27576,4.75238 -18.55775,9.49263 -27.82729,14.25715 -8.38847,4.31165 -16.62469,8.92998 -25.14669,12.97132 -0.51953,0.24638 0.59917,-0.98156 0.89875,-1.47234 -4.45418,2.56994 -8.90837,5.13988 -13.36256,7.70982 -0.36011,0.23486 -8.01656,6.64224 -9.38894,7.78869 0,0 -27.63107,10.91413 -27.63107,10.91413 z"
         id="path4751"
         style="opacity:1;fill:#ffffff;fill-opacity:1;stroke:#000000;stroke-width:5;stroke-linecap:round;stroke-linejoin:round;stroke-miterlimit:4;stroke-dasharray:none;stroke-dashoffset:0;stroke-opacity:1" />
      <path
         style="opacity:1;fill:#ffffff;fill-opacity:1;stroke:#000000;stroke-width:3.32322764;stroke-linecap:round;stroke-linejoin:round;stroke-miterlimit:4;stroke-dasharray:none;stroke-dashoffset:0;stroke-opacity:1"
         id="path4753"
         d="m 59.509222,524.86362 c 1.991385,2.07504 4.862299,3.75632 6.919883,5.7973 2.692141,2.6704 5.110579,5.44747 7.541469,8.21553 6.374787,7.25898 12.720048,14.52923 18.873736,21.86353 7.47763,8.91225 14.38138,18.01093 21.59152,27.01022 16.9582,21.36526 34.28191,42.61754 52.73357,63.48884 13.55037,15.32728 9.57394,11.19828 19.10203,20.63029 20.16669,20.39122 41.36425,40.40393 64.67297,59.429 0,0 8.06053,12.74403 8.06053,12.74403 l 0,0 c -23.67446,-19.90643 -45.52007,-40.65531 -66.36864,-61.77247 -7.44395,-7.97424 -14.9781,-15.91535 -22.33185,-23.92275 -23.85092,-25.97098 -45.55046,-52.69143 -67.10785,-79.43548 -3.97976,-4.8931 -7.94936,-9.78949 -11.939279,-14.67931 -3.610678,-4.42505 -7.478178,-8.76978 -10.862492,-13.26526 -0.206324,-0.27406 0.821982,0.31607 1.232973,0.4741 -2.152129,-2.34965 -4.304258,-4.6993 -6.456386,-7.04895 -0.196677,-0.18997 -5.562369,-4.22886 -6.522434,-4.95281 0,0 -9.13975,-14.57581 -9.13975,-14.57581 z"
         inkscape:connector-curvature="0" />
      <path
         inkscape:connector-curvature="0"
         d="m 489.50822,327.55798 c 1.66514,1.60305 4.06572,2.90189 5.78621,4.47862 2.25109,2.06297 4.27332,4.20836 6.30597,6.34678 5.33042,5.60781 10.63615,11.22434 15.7817,16.89033 6.25259,6.88502 12.02531,13.91407 18.05422,20.86633 14.17998,16.5054 28.66558,32.92353 44.09435,49.04733 11.33044,11.84085 8.00546,8.65105 15.97258,15.93761 16.86282,15.75292 34.58764,31.21343 54.07774,45.91095 0,0 6.73999,9.84521 6.73999,9.84521 l 0,0 c -19.79593,-15.37841 -38.06261,-31.40763 -55.49561,-47.72137 -6.22443,-6.16038 -12.52426,-12.29516 -18.67327,-18.48115 -19.94347,-20.06348 -38.08802,-40.70595 -56.11372,-61.36665 -3.32776,-3.78009 -6.64703,-7.56272 -9.98328,-11.34028 -3.01915,-3.4185 -6.25305,-6.77496 -9.08292,-10.24787 -0.17253,-0.21172 0.68731,0.24417 1.03098,0.36625 -1.79955,-1.81518 -3.5991,-3.63036 -5.39865,-5.44555 -0.16446,-0.14675 -4.6511,-3.26694 -5.45388,-3.82622 0,0 -7.64241,-11.26032 -7.64241,-11.26032 z"
         id="path4755"
         style="opacity:1;fill:#ffffff;fill-opacity:1;stroke:#000000;stroke-width:2.67095709;stroke-linecap:round;stroke-linejoin:round;stroke-miterlimit:4;stroke-dasharray:none;stroke-dashoffset:0;stroke-opacity:1" />
      <g
         id="g4785"
         transform="translate(222.26539,-667.02691)">
        <path
           style="opacity:1;fill:#ffffff;fill-opacity:1;stroke:#000000;stroke-width:5;stroke-linecap:round;stroke-linejoin:round;stroke-miterlimit:4;stroke-dasharray:none;stroke-dashoffset:0;stroke-opacity:1"
           id="path4787"
           d="m 263.87426,720.72879 c 0.88752,19.86463 0.57693,39.77996 0.57193,59.66247 0.72775,33.78847 1.81843,67.56738 2.46529,101.35822 0.48049,28.29775 0.613,56.60126 1.23544,84.89644 0.12056,7.81583 0.37748,15.6284 0.60723,23.44148 0,0 -17.46827,8.8995 -17.46827,8.8995 l 0,0 c 0.23595,-8.01725 0.49663,-16.03422 0.60343,-24.05466 0.54152,-28.52944 0.53224,-57.0682 0.20155,-85.60035 -0.47096,-33.72904 -1.34999,-67.4466 -2.89422,-101.14544 -0.50979,-19.14773 -0.46116,-38.55026 -3.81594,-57.45672 0,0 18.49356,-10.00094 18.49356,-10.00094 z"
           inkscape:connector-curvature="0" />
        <path
           inkscape:connector-curvature="0"
           d="m 273.87426,728.72879 c 0.88752,19.86463 0.57693,39.77996 0.57193,59.66247 0.72775,33.78847 1.81843,67.56738 2.46529,101.35822 0.48049,28.29775 0.613,56.60126 1.23544,84.89644 0.12056,7.81583 0.37748,15.6284 0.60723,23.44148 0,0 -17.46827,8.8995 -17.46827,8.8995 l 0,0 c 0.23595,-8.01725 0.49663,-16.03422 0.60343,-24.05466 0.54152,-28.52944 0.53224,-57.0682 0.20155,-85.60035 -0.47096,-33.72904 -1.34999,-67.4466 -2.89422,-101.14544 -0.50979,-19.14773 -0.46116,-38.55026 -3.81594,-57.45672 0,0 18.49356,-10.00094 18.49356,-10.00094 z"
           id="path4789"
           style="opacity:1;fill:#ffffff;fill-opacity:1;stroke:#000000;stroke-width:5;stroke-linecap:round;stroke-linejoin:round;stroke-miterlimit:4;stroke-dasharray:none;stroke-dashoffset:0;stroke-opacity:1" />
      </g>
      <g
         transform="translate(-11.7752,-268.10884)"
         id="g4769">
        <path
           inkscape:connector-curvature="0"
           d="m 263.87426,720.72879 c 0.88752,19.86463 0.57693,39.77996 0.57193,59.66247 0.72775,33.78847 1.81843,67.56738 2.46529,101.35822 0.48049,28.29775 0.613,56.60126 1.23544,84.89644 0.12056,7.81583 0.37748,15.6284 0.60723,23.44148 0,0 -17.46827,8.8995 -17.46827,8.8995 l 0,0 c 0.23595,-8.01725 0.49663,-16.03422 0.60343,-24.05466 0.54152,-28.52944 0.53224,-57.0682 0.20155,-85.60035 -0.47096,-33.72904 -1.34999,-67.4466 -2.89422,-101.14544 -0.50979,-19.14773 -0.46116,-38.55026 -3.81594,-57.45672 0,0 18.49356,-10.00094 18.49356,-10.00094 z"
           id="path4767"
           style="opacity:1;fill:#ffffff;fill-opacity:1;stroke:#000000;stroke-width:5;stroke-linecap:round;stroke-linejoin:round;stroke-miterlimit:4;stroke-dasharray:none;stroke-dashoffset:0;stroke-opacity:1" />
        <path
           style="opacity:1;fill:#ffffff;fill-opacity:1;stroke:#000000;stroke-width:5;stroke-linecap:round;stroke-linejoin:round;stroke-miterlimit:4;stroke-dasharray:none;stroke-dashoffset:0;stroke-opacity:1"
           id="path4763"
           d="m 273.87426,728.72879 c 0.88752,19.86463 0.57693,39.77996 0.57193,59.66247 0.72775,33.78847 1.81843,67.56738 2.46529,101.35822 0.48049,28.29775 0.613,56.60126 1.23544,84.89644 0.12056,7.81583 0.37748,15.6284 0.60723,23.44148 0,0 -17.46827,8.8995 -17.46827,8.8995 l 0,0 c 0.23595,-8.01725 0.49663,-16.03422 0.60343,-24.05466 0.54152,-28.52944 0.53224,-57.0682 0.20155,-85.60035 -0.47096,-33.72904 -1.34999,-67.4466 -2.89422,-101.14544 -0.50979,-19.14773 -0.46116,-38.55026 -3.81594,-57.45672 0,0 18.49356,-10.00094 18.49356,-10.00094 z"
           inkscape:connector-curvature="0" />
      </g>
      <g
         transform="translate(-193.34736,-470.02762)"
         id="g4779">
        <path
           inkscape:connector-curvature="0"
           d="m 263.87426,720.72879 c 0.88752,19.86463 0.57693,39.77996 0.57193,59.66247 0.72775,33.78847 1.81843,67.56738 2.46529,101.35822 0.48049,28.29775 0.613,56.60126 1.23544,84.89644 0.12056,7.81583 0.37748,15.6284 0.60723,23.44148 0,0 -17.46827,8.8995 -17.46827,8.8995 l 0,0 c 0.23595,-8.01725 0.49663,-16.03422 0.60343,-24.05466 0.54152,-28.52944 0.53224,-57.0682 0.20155,-85.60035 -0.47096,-33.72904 -1.34999,-67.4466 -2.89422,-101.14544 -0.50979,-19.14773 -0.46116,-38.55026 -3.81594,-57.45672 0,0 18.49356,-10.00094 18.49356,-10.00094 z"
           id="path4781"
           style="opacity:1;fill:#ffffff;fill-opacity:1;stroke:#000000;stroke-width:5;stroke-linecap:round;stroke-linejoin:round;stroke-miterlimit:4;stroke-dasharray:none;stroke-dashoffset:0;stroke-opacity:1" />
        <path
           style="opacity:1;fill:#ffffff;fill-opacity:1;stroke:#000000;stroke-width:5;stroke-linecap:round;stroke-linejoin:round;stroke-miterlimit:4;stroke-dasharray:none;stroke-dashoffset:0;stroke-opacity:1"
           id="path4783"
           d="m 273.87426,728.72879 c 0.88752,19.86463 0.57693,39.77996 0.57193,59.66247 0.72775,33.78847 1.81843,67.56738 2.46529,101.35822 0.48049,28.29775 0.613,56.60126 1.23544,84.89644 0.12056,7.81583 0.37748,15.6284 0.60723,23.44148 0,0 -17.46827,8.8995 -17.46827,8.8995 l 0,0 c 0.23595,-8.01725 0.49663,-16.03422 0.60343,-24.05466 0.54152,-28.52944 0.53224,-57.0682 0.20155,-85.60035 -0.47096,-33.72904 -1.34999,-67.4466 -2.89422,-101.14544 -0.50979,-19.14773 -0.46116,-38.55026 -3.81594,-57.45672 0,0 18.49356,-10.00094 18.49356,-10.00094 z"
           inkscape:connector-curvature="0" />
      </g>
      <path
         style="opacity:1;fill:#ffffff;fill-opacity:1;stroke:#000000;stroke-width:5;stroke-linecap:round;stroke-linejoin:round;stroke-miterlimit:4;stroke-dasharray:none;stroke-dashoffset:0;stroke-opacity:1"
         id="path4791"
         d="m 234.35333,751.54488 c 3.93362,-2.37799 7.12079,-5.80626 10.98982,-8.2633 5.06224,-3.21479 10.32667,-6.10274 15.57402,-9.00556 13.76071,-7.61238 27.54278,-15.1895 41.44626,-22.53786 16.89478,-8.92932 34.14296,-17.17336 51.20273,-25.78327 40.50171,-20.25044 80.78923,-40.93735 120.35453,-62.97119 29.05562,-16.18102 21.22836,-11.43261 39.10843,-22.81047 38.65523,-24.08183 76.59292,-49.39466 112.65836,-77.2285 0,0 24.15861,-9.62539 24.15861,-9.62539 l 0,0 c -37.73622,28.27059 -77.06946,54.35728 -117.10083,79.25336 -15.11662,8.88911 -30.17042,17.88593 -45.34988,26.66732 -49.23267,28.48131 -99.8861,54.39357 -150.58425,80.13609 -9.27576,4.75238 -18.55775,9.49263 -27.82729,14.25715 -8.38847,4.31165 -16.62469,8.92998 -25.14669,12.97132 -0.51953,0.24638 0.59917,-0.98156 0.89875,-1.47234 -4.45418,2.56994 -8.90837,5.13988 -13.36256,7.70982 -0.36011,0.23486 -8.01656,6.64224 -9.38894,7.78869 0,0 -27.63107,10.91413 -27.63107,10.91413 z"
         inkscape:connector-curvature="0" />
      <path
         inkscape:connector-curvature="0"
         d="m 43.346781,524.86362 c 1.991385,2.07504 4.862299,3.75632 6.919883,5.7973 2.692141,2.6704 5.110579,5.44747 7.541469,8.21553 6.374787,7.25898 12.720048,14.52923 18.873736,21.86353 7.47763,8.91225 14.38138,18.01093 21.59152,27.01022 16.958201,21.36526 34.281911,42.61754 52.733571,63.48884 13.55037,15.32728 9.57394,11.19828 19.10203,20.63029 20.16669,20.39122 41.36425,40.40393 64.67297,59.429 0,0 8.06053,12.74403 8.06053,12.74403 l 0,0 c -23.67446,-19.90643 -45.52007,-40.65531 -66.36864,-61.77247 -7.44395,-7.97424 -14.9781,-15.91535 -22.33185,-23.92275 -23.85092,-25.97098 -45.55046,-52.69143 -67.107851,-79.43548 -3.97976,-4.8931 -7.94936,-9.78949 -11.939279,-14.67931 -3.610678,-4.42505 -7.478178,-8.76978 -10.862492,-13.26526 -0.206324,-0.27406 0.821982,0.31607 1.232973,0.4741 -2.152129,-2.34965 -4.304258,-4.6993 -6.456386,-7.04895 -0.196677,-0.18997 -5.562369,-4.22886 -6.522434,-4.95281 0,0 -9.13975,-14.57581 -9.13975,-14.57581 z"
         id="path4793"
         style="opacity:1;fill:#ffffff;fill-opacity:1;stroke:#000000;stroke-width:3.32322764;stroke-linecap:round;stroke-linejoin:round;stroke-miterlimit:4;stroke-dasharray:none;stroke-dashoffset:0;stroke-opacity:1" />
      <path
         style="opacity:1;fill:#ffffff;fill-opacity:1;stroke:#000000;stroke-width:2.67095709;stroke-linecap:round;stroke-linejoin:round;stroke-miterlimit:4;stroke-dasharray:none;stroke-dashoffset:0;stroke-opacity:1"
         id="path4797"
         d="m 489.50822,313.92092 c 1.66514,1.60305 4.06572,2.90189 5.78621,4.47862 2.25109,2.06297 4.27332,4.20836 6.30597,6.34678 5.33042,5.60781 10.63615,11.22434 15.7817,16.89033 6.25259,6.88502 12.02531,13.91407 18.05422,20.86633 14.17998,16.5054 28.66558,32.92353 44.09435,49.04733 11.33044,11.84085 8.00546,8.65105 15.97258,15.93761 16.86282,15.75292 34.58764,31.21343 54.07774,45.91095 0,0 6.73999,9.84521 6.73999,9.84521 l 0,0 c -19.79593,-15.37841 -38.06261,-31.40763 -55.49561,-47.72137 -6.22443,-6.16038 -12.52426,-12.29516 -18.67327,-18.48115 -19.94347,-20.06348 -38.08802,-40.70595 -56.11372,-61.36665 -3.32776,-3.78009 -6.64703,-7.56272 -9.98328,-11.34028 -3.01915,-3.4185 -6.25305,-6.77496 -9.08292,-10.24787 -0.17253,-0.21172 0.68731,0.24417 1.03098,0.36625 -1.79955,-1.81518 -3.5991,-3.63036 -5.39865,-5.44555 -0.16446,-0.14675 -4.6511,-3.26694 -5.45388,-3.82622 0,0 -7.64241,-11.26032 -7.64241,-11.26032 z"
         inkscape:connector-curvature="0" />
      <g
         id="g4773"
         transform="translate(377.38796,-489.9261)">
        <path
           style="opacity:1;fill:#ffffff;fill-opacity:1;stroke:#000000;stroke-width:5;stroke-linecap:round;stroke-linejoin:round;stroke-miterlimit:4;stroke-dasharray:none;stroke-dashoffset:0;stroke-opacity:1"
           id="path4775"
           d="m 263.87426,720.72879 c 0.88752,19.86463 0.57693,39.77996 0.57193,59.66247 0.72775,33.78847 1.81843,67.56738 2.46529,101.35822 0.48049,28.29775 0.613,56.60126 1.23544,84.89644 0.12056,7.81583 0.37748,15.6284 0.60723,23.44148 0,0 -17.46827,8.8995 -17.46827,8.8995 l 0,0 c 0.23595,-8.01725 0.49663,-16.03422 0.60343,-24.05466 0.54152,-28.52944 0.53224,-57.0682 0.20155,-85.60035 -0.47096,-33.72904 -1.34999,-67.4466 -2.89422,-101.14544 -0.50979,-19.14773 -0.46116,-38.55026 -3.81594,-57.45672 0,0 18.49356,-10.00094 18.49356,-10.00094 z"
           inkscape:connector-curvature="0" />
        <path
           inkscape:connector-curvature="0"
           d="m 273.87426,728.72879 c 0.88752,19.86463 0.57693,39.77996 0.57193,59.66247 0.72775,33.78847 1.81843,67.56738 2.46529,101.35822 0.48049,28.29775 0.613,56.60126 1.23544,84.89644 0.12056,7.81583 0.37748,15.6284 0.60723,23.44148 0,0 -17.46827,8.8995 -17.46827,8.8995 l 0,0 c 0.23595,-8.01725 0.49663,-16.03422 0.60343,-24.05466 0.54152,-28.52944 0.53224,-57.0682 0.20155,-85.60035 -0.47096,-33.72904 -1.34999,-67.4466 -2.89422,-101.14544 -0.50979,-19.14773 -0.46116,-38.55026 -3.81594,-57.45672 0,0 18.49356,-10.00094 18.49356,-10.00094 z"
           id="path4777"
           style="opacity:1;fill:#ffffff;fill-opacity:1;stroke:#000000;stroke-width:5;stroke-linecap:round;stroke-linejoin:round;stroke-miterlimit:4;stroke-dasharray:none;stroke-dashoffset:0;stroke-opacity:1" />
      </g>
    </g>
  </g>
</svg>
